<?xml version="1.0" encoding="UTF-8" standalone="no"?>
<!-- Created with Inkscape (http://www.inkscape.org/) -->

<svg
   xmlns:dc="http://purl.org/dc/elements/1.1/"
   xmlns:cc="http://creativecommons.org/ns#"
   xmlns:rdf="http://www.w3.org/1999/02/22-rdf-syntax-ns#"
   xmlns:svg="http://www.w3.org/2000/svg"
   xmlns="http://www.w3.org/2000/svg"
   xmlns:sodipodi="http://sodipodi.sourceforge.net/DTD/sodipodi-0.dtd"
   xmlns:inkscape="http://www.inkscape.org/namespaces/inkscape"
   width="256"
   height="256"
   viewBox="0 0 67.733332 67.733335"
   version="1.1"
   id="svg8995"
   inkscape:version="0.92.2 2405546, 2018-03-11"
   sodipodi:docname="drawing.svg">
  <defs
     id="defs8989" />
  <sodipodi:namedview
     id="base"
     pagecolor="#ffffff"
     bordercolor="#666666"
     borderopacity="1.0"
     inkscape:pageopacity="0.0"
     inkscape:pageshadow="2"
     inkscape:zoom="1.979899"
     inkscape:cx="107.65712"
     inkscape:cy="133.66682"
     inkscape:document-units="mm"
     inkscape:current-layer="layer1"
     showgrid="false"
     units="px"
     inkscape:window-width="1366"
     inkscape:window-height="768"
     inkscape:window-x="0"
     inkscape:window-y="0"
     inkscape:window-maximized="0" />
  <metadata
     id="metadata8992">
    <rdf:RDF>
      <cc:Work
         rdf:about="">
        <dc:format>image/svg+xml</dc:format>
        <dc:type
           rdf:resource="http://purl.org/dc/dcmitype/StillImage" />
        <dc:title></dc:title>
      </cc:Work>
    </rdf:RDF>
  </metadata>
  <g
     inkscape:label="Layer 1"
     inkscape:groupmode="layer"
     id="layer1"
     transform="translate(0,-229.26665)">
    <g
       id="g4636">
      <path
         sodipodi:open="true"
         d="M 36.767268,242.78669 A 25.953434,25.953434 0 0 1 59.724206,270.17912 25.953434,25.953434 0 0 1 33.557933,294.5244 25.953434,25.953434 0 0 1 7.8897021,269.65457 25.953434,25.953434 0 0 1 31.396289,242.73233"
         sodipodi:end="4.6188441"
         sodipodi:start="4.8261726"
         sodipodi:ry="25.953434"
         sodipodi:rx="25.953434"
         sodipodi:cy="268.5723"
         sodipodi:cx="33.82056"
         sodipodi:type="arc"
         id="path7796-7"
         style="fill:#ebb730;fill-opacity:1;stroke:none;stroke-width:4.00387573;stroke-miterlimit:4;stroke-dasharray:none;stroke-opacity:1" />
      <path
         d="M 15.286174,250.31739 A 25.953434,25.953434 0 0 1 33.733527,242.58178 25.953434,25.953434 0 0 1 52.203202,250.26394 L 33.771103,268.53519 Z"
         sodipodi:end="5.5021696"
         sodipodi:start="3.9197127"
         sodipodi:ry="25.953434"
         sodipodi:rx="25.953434"
         sodipodi:cy="268.53519"
         sodipodi:cx="33.771103"
         sodipodi:type="arc"
         id="path7796-7-5"
         style="fill:#ffffff;fill-opacity:1;stroke:#ebb730;stroke-width:3.84988046;stroke-miterlimit:4;stroke-dasharray:none;stroke-opacity:1" />
      <path
         style="fill:#1c4478;stroke-width:1.53995216"
         inkscape:connector-curvature="0"
         id="path864"
         d="m 34.077033,296.92405 c -15.458037,0 -28.0348345,-12.57677 -28.0348345,-28.03483 0,-14.21222 10.6734165,-26.18072 24.7670555,-27.84078 l -0.01222,0.55293 c -13.694792,1.61385 -24.2065096,13.36834 -24.2065096,27.28797 0,15.15465 12.3304006,27.48505 27.4850676,27.48505 15.154673,0 27.485065,-12.3304 27.485065,-27.48505 0,-13.86423 -10.326914,-25.59095 -24.064829,-27.27872 l 0.0046,-0.57272 c 14.013568,1.72171 24.60998,13.71022 24.60998,27.85162 0,15.45805 -12.575252,28.03483 -28.033289,28.03483 z" />
      <path
         sodipodi:open="true"
         d="M 36.761203,242.78599 A 25.953434,25.953434 0 0 1 59.724489,270.17455 25.953434,25.953434 0 0 1 33.560985,294.52443 25.953434,25.953434 0 0 1 7.8897658,269.6561 25.953434,25.953434 0 0 1 31.396289,242.73233"
         sodipodi:end="4.6188441"
         sodipodi:start="4.8259374"
         sodipodi:ry="25.953434"
         sodipodi:rx="25.953434"
         sodipodi:cy="268.5723"
         sodipodi:cx="33.82056"
         sodipodi:type="arc"
         id="path7796"
         style="fill:none;fill-opacity:1;stroke:#1b4578;stroke-width:4.00387573;stroke-miterlimit:4;stroke-dasharray:none;stroke-opacity:1" />
      <g
         transform="matrix(1.5399523,0,0,1.5399523,19.575968,296.16981)"
         id="g8934">
        <rect
           style="fill:#1b4478;fill-opacity:1;stroke:none;stroke-width:1.55619979;stroke-linecap:round;stroke-linejoin:round;stroke-miterlimit:4;stroke-dasharray:none;stroke-opacity:1;paint-order:stroke markers fill"
           id="rect8667"
           width="33.687477"
           height="2.5"
           x="-22.977692"
           y="-20.43668"
           transform="rotate(45)" />
        <rect
           style="fill:#1b4478;fill-opacity:1;stroke:none;stroke-width:1.55619979;stroke-linecap:round;stroke-linejoin:round;stroke-miterlimit:4;stroke-dasharray:none;stroke-opacity:1;paint-order:stroke markers fill"
           id="rect8667-93"
           width="33.687477"
           height="2.5"
           x="-36.030415"
           y="4.8839517"
           transform="rotate(135)" />
      </g>
      <g
         transform="matrix(1.5399523,0,0,1.5399523,51.119335,228.65136)"
         id="g8881">
        <rect
           style="fill:#1b4478;fill-opacity:1;stroke:none;stroke-width:1.47180009;stroke-linecap:round;stroke-linejoin:round;stroke-miterlimit:4;stroke-dasharray:none;stroke-opacity:1;paint-order:stroke markers fill"
           id="rect8667-6-1-6"
           width="30.132517"
           height="2.5"
           x="-4.8771348"
           y="32.552414"
           transform="rotate(45)" />
        <rect
           style="fill:#1b4478;fill-opacity:1;stroke:none;stroke-width:1.47180009;stroke-linecap:round;stroke-linejoin:round;stroke-miterlimit:4;stroke-dasharray:none;stroke-opacity:1;paint-order:stroke markers fill"
           id="rect8667-6-1-6-0"
           width="30.132517"
           height="2.5"
           x="11.174057"
           y="-19.001234"
           transform="rotate(135)" />
      </g>
      <g
         transform="translate(0.01999966,0.15002072)"
         id="g4611">
        <rect
           style="fill:#1b4478;fill-opacity:1;stroke:none;stroke-width:1.66882086;stroke-linecap:round;stroke-linejoin:round;stroke-miterlimit:4;stroke-dasharray:none;stroke-opacity:1;paint-order:stroke markers fill"
           id="rect8667-9"
           width="25.156488"
           height="3.8498807"
           x="211.85976"
           y="152.78017"
           transform="rotate(45)" />
        <rect
           style="fill:#1b4478;fill-opacity:1;stroke:none;stroke-width:1.66882086;stroke-linecap:round;stroke-linejoin:round;stroke-miterlimit:4;stroke-dasharray:none;stroke-opacity:1;paint-order:stroke markers fill"
           id="rect8667-9-26"
           width="25.156488"
           height="3.8498807"
           x="164.099"
           y="-204.39079"
           transform="rotate(135)" />
      </g>
      <g
         transform="translate(-0.06681738,0.1889881)"
         id="g875">
        <rect
           style="fill:#ffffff;fill-opacity:1;stroke:none;stroke-width:0.66145831;stroke-linecap:round;stroke-linejoin:round;stroke-miterlimit:4;stroke-dasharray:none;stroke-opacity:1;paint-order:stroke markers fill"
           id="rect850-6"
           width="7.8902516"
           height="26.978048"
           x="30.286732"
           y="229.32002"
           ry="1.7972643" />
        <rect
           style="fill:#1b4478;fill-opacity:1;stroke:none;stroke-width:0.66145831;stroke-linecap:round;stroke-linejoin:round;stroke-miterlimit:4;stroke-dasharray:none;stroke-opacity:1;paint-order:stroke markers fill"
           id="rect850"
           width="3.6852679"
           height="23.576263"
           x="32.271107"
           y="231.23351"
           ry="1.7972643" />
      </g>
      <g
         id="g4615">
        <path
           style="fill:none;stroke:#ebb730;stroke-width:0.27500001;stroke-linecap:butt;stroke-linejoin:miter;stroke-miterlimit:4;stroke-dasharray:none;stroke-opacity:1"
           d="M 18.364804,250.45592 C 10.936941,256.83706 9.0354271,265.78099 10.445646,273.13619 L 22.926966,260.66297 25.844122,263.57271 11.78408,277.61319 C 12.443683,279.48921 13.755323,281.75142 15.611088,283.99154 L 22.700516,276.77826 25.61194,279.68562 18.504621,286.80846 C 20.279235,288.25469 22.1465,289.53994 24.868638,290.64071 L 38.909111,276.6031 41.833185,279.51047 29.377169,291.97224 C 39.312265,293.75535 46.431353,289.22514 49.086298,286.84187 L 33.817897,271.5453 36.710936,268.60452 52.066218,283.9598 C 53.502582,282.05618 54.710241,280.38563 55.818383,277.66627 L 49.737278,271.58276 52.644648,268.68923 57.149327,273.14667 C 58.261691,266.09378 57.147496,263.67242 55.893227,259.60397 L 41.811192,273.70221"
           id="path877"
           inkscape:connector-curvature="0"
           sodipodi:nodetypes="ccccccccccccccccccccccc" />
        <path
           style="fill:none;stroke:#ebb730;stroke-width:0.27500001;stroke-linecap:butt;stroke-linejoin:miter;stroke-miterlimit:4;stroke-dasharray:none;stroke-opacity:1"
           d="M 33.742777,265.79627 25.591057,273.86447 28.497614,276.80443 52.05074,253.27039 C 53.466214,254.9958 54.880743,257.1817 55.893227,259.60397"
           id="path4585"
           inkscape:connector-curvature="0"
           sodipodi:nodetypes="ccccc" />
      </g>
    </g>
  </g>
</svg>
